<svg xmlns="http://www.w3.org/2000/svg" version="1.1" xmlns:xlink="http://www.w3.org/1999/xlink" xmlns:svgjs="http://svgjs.com/svgjs" width="512" height="512" x="0" y="0" viewBox="0 0 512 511" style="enable-background:new 0 0 512 512" xml:space="preserve"><g><path d="M506.04 180.988c-7.782-12.547-21.532-20.047-36.782-20.047H129.695c-16.832 0-32.14 9.489-39.011 24.18L.87 373.43c3.39 13.789 16.27 24.09 31.61 24.09H393.75a40.753 40.753 0 0 0 36.46-22.555l77.63-155.594c6.129-12.312 5.45-26.66-1.8-38.383zm0 0" fill="#d6fdfd" data-original="#000000"></path><path d="M72.402 156.156c6.864-14.687 22.176-24.18 39.012-24.18h319.754V91.079c0-16.86-14.223-30.578-31.703-30.578H213.02c-.274 0-.461-.07-.532-.121l-33.37-46.66C173.206 5.44 163.444.5 153.015.5H31.71C14.223.5 0 14.219 0 31.078v276.875zm0 0" fill="#d6fdfd" data-original="#000000"></path></g></svg>